<mxfile host="app.diagrams.net" agent="Mozilla/5.0 (Windows NT 10.0; Win64; x64) AppleWebKit/537.36 (KHTML, like Gecko) Chrome/133.0.0.0 Safari/537.36" version="26.0.6">
  <diagram name="Page-1" id="YMpeEM0emrkQcf3CNv-r">
    <mxGraphModel dx="2728" dy="1109" grid="1" gridSize="10" guides="1" tooltips="1" connect="1" arrows="1" fold="1" page="1" pageScale="1" pageWidth="850" pageHeight="1100" math="0" shadow="0">
      <root>
        <mxCell id="0" />
        <mxCell id="1" parent="0" />
        <mxCell id="6POHzfX0X49WXBiu22xe-26" style="edgeStyle=orthogonalEdgeStyle;rounded=0;orthogonalLoop=1;jettySize=auto;html=1;exitX=1;exitY=0.5;exitDx=0;exitDy=0;entryX=0;entryY=0.25;entryDx=0;entryDy=0;entryPerimeter=0;" parent="1" source="6POHzfX0X49WXBiu22xe-3" target="6POHzfX0X49WXBiu22xe-45" edge="1">
          <mxGeometry relative="1" as="geometry">
            <mxPoint x="600" y="560" as="targetPoint" />
            <Array as="points">
              <mxPoint x="500" y="195" />
              <mxPoint x="500" y="560" />
            </Array>
          </mxGeometry>
        </mxCell>
        <mxCell id="6POHzfX0X49WXBiu22xe-82" style="edgeStyle=orthogonalEdgeStyle;rounded=0;orthogonalLoop=1;jettySize=auto;html=1;exitX=1;exitY=0.5;exitDx=0;exitDy=0;entryX=0;entryY=0.5;entryDx=0;entryDy=0;" parent="1" source="6POHzfX0X49WXBiu22xe-3" target="6POHzfX0X49WXBiu22xe-79" edge="1">
          <mxGeometry relative="1" as="geometry">
            <Array as="points">
              <mxPoint x="500" y="195" />
              <mxPoint x="500" y="260" />
            </Array>
          </mxGeometry>
        </mxCell>
        <mxCell id="6POHzfX0X49WXBiu22xe-3" value="a1" style="html=1;strokeWidth=2;shape=manualInput;whiteSpace=wrap;rounded=1;size=26;arcSize=11;" parent="1" vertex="1">
          <mxGeometry x="-220" y="160" width="50" height="50" as="geometry" />
        </mxCell>
        <mxCell id="6POHzfX0X49WXBiu22xe-28" style="edgeStyle=orthogonalEdgeStyle;rounded=0;orthogonalLoop=1;jettySize=auto;html=1;entryX=0;entryY=0.5;entryDx=0;entryDy=0;strokeColor=#000000;" parent="1" source="6POHzfX0X49WXBiu22xe-5" target="6POHzfX0X49WXBiu22xe-20" edge="1">
          <mxGeometry relative="1" as="geometry">
            <Array as="points">
              <mxPoint x="-130" y="760" />
              <mxPoint x="-130" y="760" />
            </Array>
          </mxGeometry>
        </mxCell>
        <mxCell id="6POHzfX0X49WXBiu22xe-58" style="edgeStyle=orthogonalEdgeStyle;rounded=0;orthogonalLoop=1;jettySize=auto;html=1;entryX=0.175;entryY=0.75;entryDx=0;entryDy=0;entryPerimeter=0;strokeWidth=1;strokeColor=#000000;exitX=1;exitY=0.5;exitDx=0;exitDy=0;" parent="1" source="6POHzfX0X49WXBiu22xe-5" target="6POHzfX0X49WXBiu22xe-59" edge="1">
          <mxGeometry relative="1" as="geometry">
            <mxPoint x="330" y="510" as="targetPoint" />
            <Array as="points">
              <mxPoint x="-110" y="760" />
              <mxPoint x="-110" y="400" />
              <mxPoint x="280" y="400" />
              <mxPoint x="280" y="320" />
            </Array>
          </mxGeometry>
        </mxCell>
        <mxCell id="6POHzfX0X49WXBiu22xe-5" value="b1" style="html=1;strokeWidth=2;shape=manualInput;whiteSpace=wrap;rounded=1;size=26;arcSize=11;" parent="1" vertex="1">
          <mxGeometry x="-220" y="735" width="50" height="50" as="geometry" />
        </mxCell>
        <mxCell id="6POHzfX0X49WXBiu22xe-29" style="edgeStyle=orthogonalEdgeStyle;rounded=0;orthogonalLoop=1;jettySize=auto;html=1;entryX=0;entryY=0.5;entryDx=0;entryDy=0;strokeColor=#000000;" parent="1" source="6POHzfX0X49WXBiu22xe-6" target="6POHzfX0X49WXBiu22xe-24" edge="1">
          <mxGeometry relative="1" as="geometry" />
        </mxCell>
        <mxCell id="6POHzfX0X49WXBiu22xe-6" value="b2" style="html=1;strokeWidth=2;shape=manualInput;whiteSpace=wrap;rounded=1;size=26;arcSize=11;" parent="1" vertex="1">
          <mxGeometry x="-220" y="575" width="50" height="50" as="geometry" />
        </mxCell>
        <mxCell id="6POHzfX0X49WXBiu22xe-9" value="r" style="strokeWidth=2;html=1;shape=mxgraph.flowchart.display;whiteSpace=wrap;fillColor=#f8cecc;strokeColor=#b85450;" parent="1" vertex="1">
          <mxGeometry x="1050" y="702.5" width="60" height="35" as="geometry" />
        </mxCell>
        <mxCell id="6POHzfX0X49WXBiu22xe-10" value="g" style="strokeWidth=2;html=1;shape=mxgraph.flowchart.display;whiteSpace=wrap;fillColor=#d5e8d4;strokeColor=#82b366;" parent="1" vertex="1">
          <mxGeometry x="1050" y="392.5" width="60" height="35" as="geometry" />
        </mxCell>
        <mxCell id="6POHzfX0X49WXBiu22xe-11" value="b" style="strokeWidth=2;html=1;shape=mxgraph.flowchart.display;whiteSpace=wrap;fillColor=#dae8fc;strokeColor=#6c8ebf;" parent="1" vertex="1">
          <mxGeometry x="1245" y="532.5" width="60" height="35" as="geometry" />
        </mxCell>
        <mxCell id="6POHzfX0X49WXBiu22xe-19" value="" style="group" parent="1" vertex="1" connectable="0">
          <mxGeometry y="730" width="60" height="60" as="geometry" />
        </mxCell>
        <mxCell id="6POHzfX0X49WXBiu22xe-20" value="b1&#39;" style="triangle;whiteSpace=wrap;html=1;" parent="6POHzfX0X49WXBiu22xe-19" vertex="1">
          <mxGeometry width="53.33333333333333" height="60" as="geometry" />
        </mxCell>
        <mxCell id="6POHzfX0X49WXBiu22xe-21" value="" style="ellipse;whiteSpace=wrap;html=1;aspect=fixed;strokeColor=#000000;" parent="6POHzfX0X49WXBiu22xe-19" vertex="1">
          <mxGeometry x="53.33333333333333" y="26.25" width="6.666666666666666" height="6.666666666666666" as="geometry" />
        </mxCell>
        <mxCell id="6POHzfX0X49WXBiu22xe-23" value="" style="group;strokeColor=none;" parent="1" vertex="1" connectable="0">
          <mxGeometry y="570" width="60" height="60" as="geometry" />
        </mxCell>
        <mxCell id="6POHzfX0X49WXBiu22xe-24" value="b2&#39;" style="triangle;whiteSpace=wrap;html=1;strokeColor=#000000;" parent="6POHzfX0X49WXBiu22xe-23" vertex="1">
          <mxGeometry width="53.33333333333333" height="60" as="geometry" />
        </mxCell>
        <mxCell id="6POHzfX0X49WXBiu22xe-25" value="" style="ellipse;whiteSpace=wrap;html=1;aspect=fixed;strokeColor=#000000;" parent="6POHzfX0X49WXBiu22xe-23" vertex="1">
          <mxGeometry x="53.33333333333333" y="26.25" width="6.666666666666666" height="6.666666666666666" as="geometry" />
        </mxCell>
        <mxCell id="6POHzfX0X49WXBiu22xe-33" style="edgeStyle=orthogonalEdgeStyle;rounded=0;orthogonalLoop=1;jettySize=auto;html=1;entryX=0.175;entryY=0.25;entryDx=0;entryDy=0;entryPerimeter=0;strokeColor=#000000;exitX=1;exitY=0.5;exitDx=0;exitDy=0;" parent="1" source="6POHzfX0X49WXBiu22xe-4" target="6POHzfX0X49WXBiu22xe-30" edge="1">
          <mxGeometry relative="1" as="geometry">
            <mxPoint x="-60" y="360" as="sourcePoint" />
            <Array as="points">
              <mxPoint x="-60" y="260" />
              <mxPoint x="-60" y="560" />
            </Array>
          </mxGeometry>
        </mxCell>
        <mxCell id="6POHzfX0X49WXBiu22xe-35" value="" style="group;strokeColor=none;" parent="1" vertex="1" connectable="0">
          <mxGeometry x="160" y="540" width="100" height="110.00000000000006" as="geometry" />
        </mxCell>
        <mxCell id="6POHzfX0X49WXBiu22xe-30" value="" style="shape=xor;whiteSpace=wrap;html=1;strokeColor=default;" parent="6POHzfX0X49WXBiu22xe-35" vertex="1">
          <mxGeometry width="80" height="80" as="geometry" />
        </mxCell>
        <mxCell id="6POHzfX0X49WXBiu22xe-34" value="a2 + b2&#39;" style="text;html=1;align=center;verticalAlign=middle;resizable=0;points=[];autosize=1;strokeColor=none;fillColor=none;" parent="6POHzfX0X49WXBiu22xe-35" vertex="1">
          <mxGeometry x="15" y="80" width="70" height="30" as="geometry" />
        </mxCell>
        <mxCell id="6POHzfX0X49WXBiu22xe-44" style="edgeStyle=orthogonalEdgeStyle;rounded=0;orthogonalLoop=1;jettySize=auto;html=1;exitX=1;exitY=0.5;exitDx=0;exitDy=0;strokeColor=#000000;entryX=0.175;entryY=0.75;entryDx=0;entryDy=0;entryPerimeter=0;" parent="1" source="6POHzfX0X49WXBiu22xe-6" target="6POHzfX0X49WXBiu22xe-37" edge="1">
          <mxGeometry relative="1" as="geometry">
            <mxPoint x="150" y="380" as="targetPoint" />
            <Array as="points">
              <mxPoint x="-80" y="600" />
              <mxPoint x="-80" y="300" />
            </Array>
          </mxGeometry>
        </mxCell>
        <mxCell id="6POHzfX0X49WXBiu22xe-45" value="" style="shape=or;whiteSpace=wrap;html=1;" parent="1" vertex="1">
          <mxGeometry x="640" y="540" width="80" height="80" as="geometry" />
        </mxCell>
        <mxCell id="6POHzfX0X49WXBiu22xe-46" value="" style="shape=or;whiteSpace=wrap;html=1;" parent="1" vertex="1">
          <mxGeometry x="370" y="700" width="70" height="80" as="geometry" />
        </mxCell>
        <mxCell id="6POHzfX0X49WXBiu22xe-49" style="edgeStyle=orthogonalEdgeStyle;rounded=0;orthogonalLoop=1;jettySize=auto;html=1;entryX=0.175;entryY=0.75;entryDx=0;entryDy=0;entryPerimeter=0;strokeColor=#000000;" parent="1" source="6POHzfX0X49WXBiu22xe-25" target="6POHzfX0X49WXBiu22xe-30" edge="1">
          <mxGeometry relative="1" as="geometry">
            <Array as="points">
              <mxPoint x="120" y="600" />
              <mxPoint x="120" y="600" />
            </Array>
          </mxGeometry>
        </mxCell>
        <mxCell id="6POHzfX0X49WXBiu22xe-51" value="a1&#39;.(a2&#39; + b1 + b2)" style="text;html=1;align=center;verticalAlign=middle;resizable=0;points=[];autosize=1;strokeColor=none;fillColor=none;" parent="1" vertex="1">
          <mxGeometry x="630" y="319.38" width="120" height="30" as="geometry" />
        </mxCell>
        <mxCell id="6POHzfX0X49WXBiu22xe-54" value="a1.(a2 + b1&#39; + b2&#39;)" style="text;html=1;align=center;verticalAlign=middle;resizable=0;points=[];autosize=1;strokeColor=none;fillColor=none;" parent="1" vertex="1">
          <mxGeometry x="640" y="615" width="120" height="30" as="geometry" />
        </mxCell>
        <mxCell id="6POHzfX0X49WXBiu22xe-55" value="" style="shape=xor;whiteSpace=wrap;html=1;" parent="1" vertex="1">
          <mxGeometry x="360" y="560" width="80" height="80" as="geometry" />
        </mxCell>
        <mxCell id="6POHzfX0X49WXBiu22xe-56" style="edgeStyle=orthogonalEdgeStyle;rounded=0;orthogonalLoop=1;jettySize=auto;html=1;entryX=0.175;entryY=0.25;entryDx=0;entryDy=0;entryPerimeter=0;strokeColor=#000000;" parent="1" source="6POHzfX0X49WXBiu22xe-30" target="6POHzfX0X49WXBiu22xe-55" edge="1">
          <mxGeometry relative="1" as="geometry">
            <Array as="points">
              <mxPoint x="330" y="580" />
              <mxPoint x="330" y="580" />
            </Array>
          </mxGeometry>
        </mxCell>
        <mxCell id="6POHzfX0X49WXBiu22xe-57" style="edgeStyle=orthogonalEdgeStyle;rounded=0;orthogonalLoop=1;jettySize=auto;html=1;entryX=0.175;entryY=0.75;entryDx=0;entryDy=0;entryPerimeter=0;strokeColor=#000000;" parent="1" source="6POHzfX0X49WXBiu22xe-21" target="6POHzfX0X49WXBiu22xe-55" edge="1">
          <mxGeometry relative="1" as="geometry">
            <Array as="points">
              <mxPoint x="280" y="760" />
              <mxPoint x="280" y="620" />
            </Array>
          </mxGeometry>
        </mxCell>
        <mxCell id="6POHzfX0X49WXBiu22xe-61" value="&lt;span style=&quot;color: rgb(0, 0, 0); font-family: Helvetica; font-size: 12px; font-style: normal; font-variant-ligatures: normal; font-variant-caps: normal; font-weight: 400; letter-spacing: normal; orphans: 2; text-align: center; text-indent: 0px; text-transform: none; widows: 2; word-spacing: 0px; -webkit-text-stroke-width: 0px; white-space: nowrap; background-color: rgb(251, 251, 251); text-decoration-thickness: initial; text-decoration-style: initial; text-decoration-color: initial; float: none; display: inline !important;&quot;&gt;a2&#39; + b1 + b2&lt;/span&gt;" style="text;whiteSpace=wrap;html=1;" parent="1" vertex="1">
          <mxGeometry x="370" y="340" width="130" height="40" as="geometry" />
        </mxCell>
        <mxCell id="6POHzfX0X49WXBiu22xe-62" value="a2 + b1&#39; + b2&#39;" style="text;html=1;align=center;verticalAlign=middle;resizable=0;points=[];autosize=1;strokeColor=none;fillColor=none;" parent="1" vertex="1">
          <mxGeometry x="360" y="640" width="100" height="30" as="geometry" />
        </mxCell>
        <mxCell id="6POHzfX0X49WXBiu22xe-63" style="edgeStyle=orthogonalEdgeStyle;rounded=0;orthogonalLoop=1;jettySize=auto;html=1;entryX=0;entryY=0.25;entryDx=0;entryDy=0;entryPerimeter=0;" parent="1" source="6POHzfX0X49WXBiu22xe-30" target="6POHzfX0X49WXBiu22xe-46" edge="1">
          <mxGeometry relative="1" as="geometry" />
        </mxCell>
        <mxCell id="6POHzfX0X49WXBiu22xe-64" style="edgeStyle=orthogonalEdgeStyle;rounded=0;orthogonalLoop=1;jettySize=auto;html=1;entryX=0;entryY=0.75;entryDx=0;entryDy=0;entryPerimeter=0;" parent="1" source="6POHzfX0X49WXBiu22xe-21" target="6POHzfX0X49WXBiu22xe-46" edge="1">
          <mxGeometry relative="1" as="geometry" />
        </mxCell>
        <mxCell id="6POHzfX0X49WXBiu22xe-65" value="b1&#39;.(a2 + b2&#39;)" style="text;html=1;align=center;verticalAlign=middle;resizable=0;points=[];autosize=1;strokeColor=none;fillColor=none;" parent="1" vertex="1">
          <mxGeometry x="365" y="780" width="90" height="30" as="geometry" />
        </mxCell>
        <mxCell id="6POHzfX0X49WXBiu22xe-16" value="a2&#39;" style="triangle;whiteSpace=wrap;html=1;strokeColor=#000000;container=0;" parent="1" vertex="1">
          <mxGeometry y="230" width="53.33333333333333" height="60" as="geometry" />
        </mxCell>
        <mxCell id="6POHzfX0X49WXBiu22xe-17" value="" style="ellipse;whiteSpace=wrap;html=1;aspect=fixed;strokeColor=#000000;container=0;" parent="1" vertex="1">
          <mxGeometry x="53.333333333333314" y="256.67" width="6.666666666666666" height="6.666666666666666" as="geometry" />
        </mxCell>
        <mxCell id="6POHzfX0X49WXBiu22xe-27" style="edgeStyle=orthogonalEdgeStyle;rounded=0;orthogonalLoop=1;jettySize=auto;html=1;strokeColor=#000000;entryX=0;entryY=0.5;entryDx=0;entryDy=0;" parent="1" source="6POHzfX0X49WXBiu22xe-4" target="6POHzfX0X49WXBiu22xe-16" edge="1">
          <mxGeometry relative="1" as="geometry">
            <mxPoint y="285" as="targetPoint" />
          </mxGeometry>
        </mxCell>
        <mxCell id="6POHzfX0X49WXBiu22xe-4" value="a2" style="html=1;strokeWidth=2;shape=manualInput;whiteSpace=wrap;rounded=1;size=26;arcSize=11;container=0;" parent="1" vertex="1">
          <mxGeometry x="-220" y="235" width="50" height="50" as="geometry" />
        </mxCell>
        <mxCell id="6POHzfX0X49WXBiu22xe-38" value="a2&#39; + b2" style="text;html=1;align=center;verticalAlign=middle;resizable=0;points=[];autosize=1;strokeColor=none;fillColor=none;container=0;" parent="1" vertex="1">
          <mxGeometry x="165" y="310" width="70" height="30" as="geometry" />
        </mxCell>
        <mxCell id="6POHzfX0X49WXBiu22xe-37" value="" style="shape=xor;whiteSpace=wrap;html=1;strokeColor=#000000;container=0;" parent="1" vertex="1">
          <mxGeometry x="160" y="240.63" width="80" height="78.75" as="geometry" />
        </mxCell>
        <mxCell id="6POHzfX0X49WXBiu22xe-59" value="" style="shape=xor;whiteSpace=wrap;html=1;container=0;" parent="1" vertex="1">
          <mxGeometry x="360" y="260" width="80" height="80" as="geometry" />
        </mxCell>
        <mxCell id="6POHzfX0X49WXBiu22xe-69" style="edgeStyle=orthogonalEdgeStyle;rounded=0;orthogonalLoop=1;jettySize=auto;html=1;entryX=0.175;entryY=0.25;entryDx=0;entryDy=0;entryPerimeter=0;" parent="1" source="6POHzfX0X49WXBiu22xe-17" target="6POHzfX0X49WXBiu22xe-37" edge="1">
          <mxGeometry relative="1" as="geometry" />
        </mxCell>
        <mxCell id="6POHzfX0X49WXBiu22xe-70" style="edgeStyle=orthogonalEdgeStyle;rounded=0;orthogonalLoop=1;jettySize=auto;html=1;exitX=1;exitY=0.5;exitDx=0;exitDy=0;exitPerimeter=0;entryX=0.175;entryY=0.25;entryDx=0;entryDy=0;entryPerimeter=0;" parent="1" source="6POHzfX0X49WXBiu22xe-37" target="6POHzfX0X49WXBiu22xe-59" edge="1">
          <mxGeometry relative="1" as="geometry" />
        </mxCell>
        <mxCell id="6POHzfX0X49WXBiu22xe-71" value="" style="shape=or;whiteSpace=wrap;html=1;" parent="1" vertex="1">
          <mxGeometry x="370" y="390" width="70" height="80" as="geometry" />
        </mxCell>
        <mxCell id="6POHzfX0X49WXBiu22xe-72" style="edgeStyle=orthogonalEdgeStyle;rounded=0;orthogonalLoop=1;jettySize=auto;html=1;entryX=0;entryY=0.25;entryDx=0;entryDy=0;entryPerimeter=0;" parent="1" source="6POHzfX0X49WXBiu22xe-37" target="6POHzfX0X49WXBiu22xe-71" edge="1">
          <mxGeometry relative="1" as="geometry">
            <Array as="points">
              <mxPoint x="310" y="280" />
              <mxPoint x="310" y="410" />
            </Array>
          </mxGeometry>
        </mxCell>
        <mxCell id="6POHzfX0X49WXBiu22xe-73" style="edgeStyle=orthogonalEdgeStyle;rounded=0;orthogonalLoop=1;jettySize=auto;html=1;entryX=0;entryY=0.75;entryDx=0;entryDy=0;entryPerimeter=0;" parent="1" source="6POHzfX0X49WXBiu22xe-5" target="6POHzfX0X49WXBiu22xe-71" edge="1">
          <mxGeometry relative="1" as="geometry">
            <Array as="points">
              <mxPoint x="-110" y="760" />
              <mxPoint x="-110" y="450" />
            </Array>
          </mxGeometry>
        </mxCell>
        <mxCell id="6POHzfX0X49WXBiu22xe-74" value="&lt;span style=&quot;color: rgb(0, 0, 0); font-family: Helvetica; font-size: 12px; font-style: normal; font-variant-ligatures: normal; font-variant-caps: normal; font-weight: 400; letter-spacing: normal; orphans: 2; text-align: center; text-indent: 0px; text-transform: none; widows: 2; word-spacing: 0px; -webkit-text-stroke-width: 0px; white-space: nowrap; background-color: rgb(251, 251, 251); text-decoration-thickness: initial; text-decoration-style: initial; text-decoration-color: initial; float: none; display: inline !important;&quot;&gt;b1.(a2&#39; + b2)&lt;/span&gt;" style="text;whiteSpace=wrap;html=1;" parent="1" vertex="1">
          <mxGeometry x="370" y="470" width="80" height="40" as="geometry" />
        </mxCell>
        <mxCell id="6POHzfX0X49WXBiu22xe-77" style="edgeStyle=orthogonalEdgeStyle;rounded=0;orthogonalLoop=1;jettySize=auto;html=1;entryX=0;entryY=0.75;entryDx=0;entryDy=0;entryPerimeter=0;" parent="1" source="6POHzfX0X49WXBiu22xe-55" target="6POHzfX0X49WXBiu22xe-45" edge="1">
          <mxGeometry relative="1" as="geometry" />
        </mxCell>
        <mxCell id="6POHzfX0X49WXBiu22xe-78" value="" style="shape=or;whiteSpace=wrap;html=1;" parent="1" vertex="1">
          <mxGeometry x="640" y="240.84" width="80" height="80" as="geometry" />
        </mxCell>
        <mxCell id="6POHzfX0X49WXBiu22xe-79" value="a1&#39;" style="triangle;whiteSpace=wrap;html=1;strokeColor=#000000;container=0;" parent="1" vertex="1">
          <mxGeometry x="550" y="230" width="53.33333333333333" height="60" as="geometry" />
        </mxCell>
        <mxCell id="6POHzfX0X49WXBiu22xe-81" style="edgeStyle=orthogonalEdgeStyle;rounded=0;orthogonalLoop=1;jettySize=auto;html=1;entryX=0;entryY=0.25;entryDx=0;entryDy=0;entryPerimeter=0;" parent="1" source="6POHzfX0X49WXBiu22xe-80" target="6POHzfX0X49WXBiu22xe-78" edge="1">
          <mxGeometry relative="1" as="geometry" />
        </mxCell>
        <mxCell id="6POHzfX0X49WXBiu22xe-83" style="edgeStyle=orthogonalEdgeStyle;rounded=0;orthogonalLoop=1;jettySize=auto;html=1;exitX=1;exitY=0.5;exitDx=0;exitDy=0;exitPerimeter=0;entryX=0;entryY=0.75;entryDx=0;entryDy=0;entryPerimeter=0;" parent="1" source="6POHzfX0X49WXBiu22xe-59" target="6POHzfX0X49WXBiu22xe-78" edge="1">
          <mxGeometry relative="1" as="geometry" />
        </mxCell>
        <mxCell id="6POHzfX0X49WXBiu22xe-80" value="" style="ellipse;whiteSpace=wrap;html=1;aspect=fixed;strokeColor=#000000;container=0;" parent="1" vertex="1">
          <mxGeometry x="603.3333333333333" y="256.67" width="6.666666666666666" height="6.666666666666666" as="geometry" />
        </mxCell>
        <mxCell id="6POHzfX0X49WXBiu22xe-85" value="" style="shape=xor;whiteSpace=wrap;html=1;container=0;" parent="1" vertex="1">
          <mxGeometry x="850" y="370" width="80" height="80" as="geometry" />
        </mxCell>
        <mxCell id="6POHzfX0X49WXBiu22xe-86" style="edgeStyle=orthogonalEdgeStyle;rounded=0;orthogonalLoop=1;jettySize=auto;html=1;exitX=1;exitY=0.5;exitDx=0;exitDy=0;exitPerimeter=0;entryX=0.175;entryY=0.25;entryDx=0;entryDy=0;entryPerimeter=0;" parent="1" source="6POHzfX0X49WXBiu22xe-78" target="6POHzfX0X49WXBiu22xe-85" edge="1">
          <mxGeometry relative="1" as="geometry">
            <Array as="points">
              <mxPoint x="790" y="281" />
              <mxPoint x="790" y="390" />
            </Array>
          </mxGeometry>
        </mxCell>
        <mxCell id="6POHzfX0X49WXBiu22xe-87" style="edgeStyle=orthogonalEdgeStyle;rounded=0;orthogonalLoop=1;jettySize=auto;html=1;entryX=0.175;entryY=0.75;entryDx=0;entryDy=0;entryPerimeter=0;" parent="1" source="6POHzfX0X49WXBiu22xe-71" target="6POHzfX0X49WXBiu22xe-85" edge="1">
          <mxGeometry relative="1" as="geometry">
            <Array as="points">
              <mxPoint x="830" y="430" />
              <mxPoint x="830" y="430" />
            </Array>
          </mxGeometry>
        </mxCell>
        <mxCell id="6POHzfX0X49WXBiu22xe-89" style="edgeStyle=orthogonalEdgeStyle;rounded=0;orthogonalLoop=1;jettySize=auto;html=1;entryX=0;entryY=0.5;entryDx=0;entryDy=0;entryPerimeter=0;" parent="1" source="6POHzfX0X49WXBiu22xe-85" target="6POHzfX0X49WXBiu22xe-10" edge="1">
          <mxGeometry relative="1" as="geometry" />
        </mxCell>
        <mxCell id="6POHzfX0X49WXBiu22xe-90" value="" style="shape=xor;whiteSpace=wrap;html=1;container=0;" parent="1" vertex="1">
          <mxGeometry x="850" y="680" width="80" height="80" as="geometry" />
        </mxCell>
        <mxCell id="6POHzfX0X49WXBiu22xe-92" style="edgeStyle=orthogonalEdgeStyle;rounded=0;orthogonalLoop=1;jettySize=auto;html=1;exitX=1;exitY=0.5;exitDx=0;exitDy=0;exitPerimeter=0;entryX=0.175;entryY=0.75;entryDx=0;entryDy=0;entryPerimeter=0;" parent="1" source="6POHzfX0X49WXBiu22xe-46" target="6POHzfX0X49WXBiu22xe-90" edge="1">
          <mxGeometry relative="1" as="geometry" />
        </mxCell>
        <mxCell id="6POHzfX0X49WXBiu22xe-93" style="edgeStyle=orthogonalEdgeStyle;rounded=0;orthogonalLoop=1;jettySize=auto;html=1;entryX=0.175;entryY=0.25;entryDx=0;entryDy=0;entryPerimeter=0;" parent="1" source="6POHzfX0X49WXBiu22xe-45" target="6POHzfX0X49WXBiu22xe-90" edge="1">
          <mxGeometry relative="1" as="geometry">
            <Array as="points">
              <mxPoint x="790" y="580" />
              <mxPoint x="790" y="700" />
            </Array>
          </mxGeometry>
        </mxCell>
        <mxCell id="6POHzfX0X49WXBiu22xe-94" style="edgeStyle=orthogonalEdgeStyle;rounded=0;orthogonalLoop=1;jettySize=auto;html=1;exitX=1;exitY=0.5;exitDx=0;exitDy=0;exitPerimeter=0;entryX=0;entryY=0.5;entryDx=0;entryDy=0;entryPerimeter=0;" parent="1" source="6POHzfX0X49WXBiu22xe-90" target="6POHzfX0X49WXBiu22xe-9" edge="1">
          <mxGeometry relative="1" as="geometry" />
        </mxCell>
        <mxCell id="6POHzfX0X49WXBiu22xe-95" value="" style="verticalLabelPosition=bottom;shadow=0;dashed=0;align=center;html=1;verticalAlign=top;shape=mxgraph.electrical.logic_gates.logic_gate;operation=xor;" parent="1" vertex="1">
          <mxGeometry x="910" y="480" width="100" height="60" as="geometry" />
        </mxCell>
        <mxCell id="6POHzfX0X49WXBiu22xe-96" style="edgeStyle=orthogonalEdgeStyle;rounded=0;orthogonalLoop=1;jettySize=auto;html=1;entryX=0;entryY=0.25;entryDx=0;entryDy=0;entryPerimeter=0;" parent="1" source="6POHzfX0X49WXBiu22xe-3" target="6POHzfX0X49WXBiu22xe-95" edge="1">
          <mxGeometry relative="1" as="geometry">
            <Array as="points">
              <mxPoint x="-120" y="185" />
              <mxPoint x="-120" y="495" />
            </Array>
          </mxGeometry>
        </mxCell>
        <mxCell id="6POHzfX0X49WXBiu22xe-97" style="edgeStyle=orthogonalEdgeStyle;rounded=0;orthogonalLoop=1;jettySize=auto;html=1;entryX=0;entryY=0.75;entryDx=0;entryDy=0;entryPerimeter=0;" parent="1" source="6POHzfX0X49WXBiu22xe-5" target="6POHzfX0X49WXBiu22xe-95" edge="1">
          <mxGeometry relative="1" as="geometry">
            <Array as="points">
              <mxPoint x="-195" y="700" />
              <mxPoint x="260" y="700" />
              <mxPoint x="260" y="525" />
            </Array>
          </mxGeometry>
        </mxCell>
        <mxCell id="6POHzfX0X49WXBiu22xe-98" value="a1^b1" style="text;html=1;align=center;verticalAlign=middle;resizable=0;points=[];autosize=1;strokeColor=none;fillColor=none;" parent="1" vertex="1">
          <mxGeometry x="930" y="535" width="60" height="30" as="geometry" />
        </mxCell>
        <mxCell id="6POHzfX0X49WXBiu22xe-99" value="" style="verticalLabelPosition=bottom;shadow=0;dashed=0;align=center;html=1;verticalAlign=top;shape=mxgraph.electrical.logic_gates.logic_gate;operation=xor;" parent="1" vertex="1">
          <mxGeometry x="910" y="565" width="100" height="60" as="geometry" />
        </mxCell>
        <mxCell id="6POHzfX0X49WXBiu22xe-100" style="edgeStyle=orthogonalEdgeStyle;rounded=0;orthogonalLoop=1;jettySize=auto;html=1;exitX=1;exitY=0.5;exitDx=0;exitDy=0;entryX=0;entryY=0.25;entryDx=0;entryDy=0;entryPerimeter=0;" parent="1" source="6POHzfX0X49WXBiu22xe-4" target="6POHzfX0X49WXBiu22xe-99" edge="1">
          <mxGeometry relative="1" as="geometry">
            <Array as="points">
              <mxPoint x="-60" y="260" />
              <mxPoint x="-60" y="235" />
              <mxPoint x="470" y="235" />
              <mxPoint x="470" y="580" />
              <mxPoint x="880" y="580" />
            </Array>
          </mxGeometry>
        </mxCell>
        <mxCell id="6POHzfX0X49WXBiu22xe-101" style="edgeStyle=orthogonalEdgeStyle;rounded=0;orthogonalLoop=1;jettySize=auto;html=1;exitX=1;exitY=0.5;exitDx=0;exitDy=0;entryX=0;entryY=0.75;entryDx=0;entryDy=0;entryPerimeter=0;" parent="1" source="6POHzfX0X49WXBiu22xe-6" target="6POHzfX0X49WXBiu22xe-99" edge="1">
          <mxGeometry relative="1" as="geometry">
            <Array as="points">
              <mxPoint x="-30" y="600" />
              <mxPoint x="-30" y="670" />
              <mxPoint x="850" y="670" />
            </Array>
          </mxGeometry>
        </mxCell>
        <mxCell id="6POHzfX0X49WXBiu22xe-102" value="a2^b2" style="text;html=1;align=center;verticalAlign=middle;resizable=0;points=[];autosize=1;strokeColor=none;fillColor=none;" parent="1" vertex="1">
          <mxGeometry x="930" y="620" width="60" height="30" as="geometry" />
        </mxCell>
        <mxCell id="6POHzfX0X49WXBiu22xe-104" value="" style="shape=xor;whiteSpace=wrap;html=1;container=0;" parent="1" vertex="1">
          <mxGeometry x="1080" y="510" width="80" height="80" as="geometry" />
        </mxCell>
        <mxCell id="6POHzfX0X49WXBiu22xe-105" style="edgeStyle=orthogonalEdgeStyle;rounded=0;orthogonalLoop=1;jettySize=auto;html=1;exitX=1;exitY=0.5;exitDx=0;exitDy=0;exitPerimeter=0;entryX=0.175;entryY=0.25;entryDx=0;entryDy=0;entryPerimeter=0;" parent="1" source="6POHzfX0X49WXBiu22xe-95" target="6POHzfX0X49WXBiu22xe-104" edge="1">
          <mxGeometry relative="1" as="geometry" />
        </mxCell>
        <mxCell id="6POHzfX0X49WXBiu22xe-106" style="edgeStyle=orthogonalEdgeStyle;rounded=0;orthogonalLoop=1;jettySize=auto;html=1;exitX=1;exitY=0.5;exitDx=0;exitDy=0;exitPerimeter=0;entryX=0.175;entryY=0.75;entryDx=0;entryDy=0;entryPerimeter=0;" parent="1" source="6POHzfX0X49WXBiu22xe-99" target="6POHzfX0X49WXBiu22xe-104" edge="1">
          <mxGeometry relative="1" as="geometry" />
        </mxCell>
        <mxCell id="6POHzfX0X49WXBiu22xe-107" style="edgeStyle=orthogonalEdgeStyle;rounded=0;orthogonalLoop=1;jettySize=auto;html=1;exitX=1;exitY=0.5;exitDx=0;exitDy=0;exitPerimeter=0;entryX=0;entryY=0.5;entryDx=0;entryDy=0;entryPerimeter=0;" parent="1" source="6POHzfX0X49WXBiu22xe-104" target="6POHzfX0X49WXBiu22xe-11" edge="1">
          <mxGeometry relative="1" as="geometry" />
        </mxCell>
      </root>
    </mxGraphModel>
  </diagram>
</mxfile>
